<?xml version="1.0" encoding="utf-8"?>
<!-- Generator: Adobe Illustrator 24.1.1, SVG Export Plug-In . SVG Version: 6.00 Build 0)  -->
<svg version="1.1" id="图层_1" xmlns="http://www.w3.org/2000/svg" xmlns:xlink="http://www.w3.org/1999/xlink" x="0px" y="0px"
	 viewBox="0 0 65.3 31.7" style="enable-background:new 0 0 65.3 31.7;" xml:space="preserve">
<style type="text/css">
	.st0{fill:#5A5A5A;}
	.st1{fill:#CD0F14;}
</style>
<polygon class="st0" points="50.6,9.1 50.6,5.6 38.4,5.6 38.4,25.5 42.5,25.5 42.5,17.5 50,17.5 50,14 42.5,14 42.5,9.1 "/>
<path class="st0" d="M59.7,13.7c-2.9-1.1-3.4-1.8-3.4-2.9c0-1,0.8-2.1,3-2.1c1.5,0,2.7,0.4,3.4,0.8l0.8,0.4l1.2-3.3L64,6.3
	c-0.7-0.4-2.3-1-4.8-1c-2.1,0-3.8,0.6-5.1,1.6c-1.3,1-2,2.5-2,4.2c0,2.7,1.9,4.7,5.7,5.9c2.7,1,3.2,1.8,3.2,3c0,1.5-1.3,2.4-3.4,2.4
	c-1.4,0-3-0.4-4.2-1.1l-0.8-0.4l-1.2,3.3l0.5,0.3c1.2,0.8,3.5,1.3,5.5,1.3c5.3,0,7.7-3,7.7-6.1C65.2,16.2,62.4,14.7,59.7,13.7z"/>
<path class="st1" d="M22,18.4H12c-1.3,0-2.4-1.1-2.4-2.4c0-1.3,1.1-2.4,2.4-2.4h10c1.3,0,2.4,1.1,2.4,2.4
	C24.3,17.4,23.3,18.4,22,18.4z M15.5,25.8h-4.2c-1.2,0-2.1-0.9-2.1-2.1c0-1.2,0.9-2.1,2.1-2.1h4.2c1.2,0,2.1,0.9,2.1,2.1
	C17.6,24.8,16.7,25.8,15.5,25.8z M29.5,10.6H26l-13.3,0c-1.4,0-2.6-1.2-2.6-2.6c0-1.4,1.2-2.6,2.6-2.6l13.3,0h1.6
	C24.7,2.1,20.5,0,15.8,0C7.1,0,0.1,7.1,0.1,15.8c0,8.7,7.1,15.8,15.8,15.8c8.7,0,15.8-7.1,15.8-15.8c0-1.9-0.4-3.8-1-5.5
	C30.2,10.5,29.9,10.6,29.5,10.6z"/>
<path class="st1" d="M32.1,7.9c0-1.4-1.2-2.6-2.6-2.6h-1.9c1.3,1.5,2.3,3.1,3,5C31.5,9.9,32.1,9,32.1,7.9z"/>
</svg>
