<?xml version="1.0" encoding="UTF-8"?>
<svg width="340px" height="201px" viewBox="0 0 340 201" version="1.1" xmlns="http://www.w3.org/2000/svg" xmlns:xlink="http://www.w3.org/1999/xlink">
    <title>401插图</title>
    <defs>
        <rect id="path-1" x="0" y="0" width="143.736594" height="199.866198"></rect>
    </defs>
    <g id="ICMS_V2.3（看板）" stroke="none" stroke-width="1" fill="none" fill-rule="evenodd">
        <g id="401插图">
            <rect id="矩形" x="0" y="0" width="340" height="200"></rect>
            <g id="编组" transform="translate(20.000000, 0.000000)">
                <g id="403" transform="translate(0.000000, 37.305569)">
                    <path d="M82.9660993,0 C84.3533246,0 85.473133,1.12058873 85.473133,2.50878073 L85.473133,2.50878073 L85.473133,77.1700953 L104.359453,77.1700953 C105.746678,77.1700953 106.866487,78.2906841 106.866487,79.6788761 L106.866487,79.6788761 L106.866487,108.186988 C106.866487,109.57518 105.746678,110.695769 104.359453,110.695769 L85.473133,110.695769 L85.473133,160.18565 C85.473133,161.573842 84.3533246,162.694431 82.9660993,162.694431 L48.7785175,162.694431 C47.3912922,162.694431 46.2714839,161.573842 46.2714839,160.18565 L46.2714839,160.18565 L46.2714839,110.695769 L2.50703362,110.695769 C1.11980835,110.695769 0,109.57518 0,108.186988 L0,108.186988 L0,77.3540726 C0,76.818866 0.167135575,76.3003847 0.484693167,75.873892 L0.484693167,75.873892 L55.17981,1.0286001 C55.6477896,0.384679712 56.3998997,0 57.2021505,0 L82.9744561,0 L82.9660993,0 Z M53.4750272,56.0294364 C41.9343157,56.0294364 32.5830803,65.3871885 32.5830803,76.9359425 C32.5830803,88.4846964 41.9343157,97.8424486 53.4750272,97.8424486 C65.0157386,97.8424486 74.366974,88.4846964 74.366974,76.9359425 C74.366974,65.3871885 65.0157386,56.0294364 53.4750272,56.0294364 Z M42.6112148,73.5909015 L64.3388395,73.5909015 C66.1856876,73.5909015 67.681551,75.0878073 67.681551,76.9359425 C67.681551,78.7840776 66.1856876,80.2809834 64.3388395,80.2809834 L42.6112148,80.2809834 C40.7643667,80.2809834 39.2685033,78.7840776 39.2685033,76.9359425 C39.2685033,75.0878073 40.7643667,73.5909015 42.6112148,73.5909015 Z" id="_形状结合备份-2-2" stroke="#E1E8F0" fill="#F1F4F8"></path>
                    <g id="_编组-222备份-5" transform="translate(103.094599, 0.000000)" fill-rule="nonzero">
                        <g id="_编组-219-6">
                            <rect id="_矩形-13" fill="#CBD5E1" x="0" y="2.22044605e-15" width="98.6099891" height="162.234487" rx="6"></rect>
                            <rect id="_矩形备份-86-6" fill="#FFFFFF" x="1.67135575" y="10.0351229" width="95.2672776" height="150.526844" rx="6"></rect>
                            <g id="编组" transform="translate(7.521101, 16.725205)" fill="#F1F4F8">
                                <ellipse id="_椭圆形-31" cx="1.25351681" cy="1.25439037" rx="1.25351681" ry="1.25439037"></ellipse>
                                <ellipse id="_椭圆形备份-60-9" cx="8.77461768" cy="1.25439037" rx="1.25351681" ry="1.25439037"></ellipse>
                                <ellipse id="_椭圆形备份-61-9" cx="16.2957185" cy="1.25439037" rx="1.25351681" ry="1.25439037"></ellipse>
                            </g>
                            <g id="编组" transform="translate(7.521101, 16.725205)" fill="#F1F4F8">
                                <ellipse id="_椭圆形-32" cx="1.25351681" cy="1.25439037" rx="1.25351681" ry="1.25439037"></ellipse>
                                <ellipse id="_椭圆形备份-60-10" cx="1.25351681" cy="8.78073256" rx="1.25351681" ry="1.25439037"></ellipse>
                                <ellipse id="_椭圆形备份-61-10" cx="1.25351681" cy="16.3070748" rx="1.25351681" ry="1.25439037"></ellipse>
                            </g>
                            <ellipse id="_椭圆形-33" fill="#F45D4A" cx="8.94175325" cy="5.19317612" rx="1.41229561" ry="1.41327981"></ellipse>
                            <ellipse id="_椭圆形备份-57-4" fill="#FFBA38" cx="13.6549765" cy="5.19317612" rx="1.41229561" ry="1.41327981"></ellipse>
                            <ellipse id="_椭圆形备份-58-4" fill="#9CDBB7" cx="18.3598429" cy="5.19317612" rx="1.41229561" ry="1.41327981"></ellipse>
                        </g>
                        <path d="M21.3599265,42.2729553 L21.3599265,51.7226961 L33.1680548,56.690082 L21.3599265,42.2813179 L21.3599265,42.2729553 Z M22.1956043,44.614484 L30.3936043,54.6161565 L22.1956043,51.1707643 L22.1956043,44.614484 L22.1956043,44.614484 Z" id="_路径-67-6" fill="#F1F4F8"></path>
                        <path d="M34.3212903,50.6857334 L34.7140589,30.6238501 L26.6581242,35.4323465 L34.3212903,50.6857334 Z M33.8449539,32.1123934 L33.5441099,47.2905168 L27.7445054,35.7501254 L33.8449539,32.1123934 L33.8449539,32.1123934 Z" id="_路径-68-5" fill="#F1F4F8"></path>
                    </g>
                    <path d="M272.281978,3.69443051 L272.281978,129.694431 C272.281978,131.351285 273.625124,132.694431 275.281978,132.694431 L296.281978,132.694431 C297.938832,132.694431 299.281978,134.037576 299.281978,135.694431 L299.281978,159.694431 C299.281978,161.351285 297.938832,162.694431 296.281978,162.694431 L218.281978,162.694431 C216.625124,162.694431 215.281978,161.351285 215.281978,159.694431 L215.281978,135.694431 C215.281978,134.037576 216.625124,132.694431 218.281978,132.694431 L239.281978,132.694431 C240.938832,132.694431 242.281978,131.351285 242.281978,129.694431 L242.281978,35.6944305 C242.281978,34.0375763 240.938832,32.6944305 239.281978,32.6944305 L217.281978,32.6944305 C215.625124,32.6944305 214.281978,31.3512848 214.281978,29.6944305 L214.281978,12.8085881 C214.281978,11.5407472 215.07899,10.4097834 216.272969,9.98336236 L241.79261,0.869204772 C242.116444,0.753549684 242.457752,0.694430507 242.801619,0.694430507 L269.281978,0.694430507 C270.938832,0.694430507 272.281978,2.03757626 272.281978,3.69443051 Z" id="路径" stroke="#E1E8F0" fill="#F1F4F8"></path>
                </g>
                <g id="人物" transform="translate(80.882532, 0.000000)">
                    <mask id="mask-2" fill="white">
                        <use xlink:href="#path-1"></use>
                    </mask>
                    <g id="path-4-2"></g>
                    <g id="编组" mask="url(#mask-2)">
                        <g transform="translate(-0.164208, 0.506507)">
                            <path d="M68.8819993,4.82047116 C68.8819993,4.82047116 51.5667538,2.51239289 45.6334409,28.1772198 C39.700128,53.8420467 39.1903645,61.8032442 24.0896653,64.6214412 C8.98896608,67.4480008 -7.13961688,80.7947143 3.35649721,95.6801467 C13.8526113,110.565579 7.19225866,106.96966 4.12532086,115.190098 C1.05002628,123.402174 20.96423,143.163003 44.4133512,145.220204 C62.0294407,146.767285 107.17276,142.652885 128.950525,130.602374 C136.321204,126.554875 139.697342,117.757417 136.931249,109.79622 C135.55238,106.007961 135.55238,100.814785 141.059497,95.1700279 C152.065375,83.8805146 120.067269,62.1628361 105.994454,43.6313091 C91.9132815,25.0997821 95.7239726,37.1586548 91.7712163,26.6385009 C87.8184599,16.1183471 68.8819993,4.82047116 68.8819993,4.82047116 L68.8819993,4.82047116 Z" id="_路径-91" stroke="none" fill="#2C333B" fill-rule="nonzero"></path>
                            <path d="M102.635029,170.27456 C102.133622,172.565914 102.033341,174.999431 102.116908,177.332597 C102.593245,190.737849 108.008437,203.290115 115.429257,214.2953 C115.429257,214.2953 110.690963,218.677303 96.4760827,218.677303 C92.1472713,218.978357 87.9855955,216.96297 85.5454161,213.375413 L76.3529595,199.242615 L71.9238668,192.427094 L71.046405,191.080715 L71.046405,144.425756 L71.9238668,143.321893 L76.6621603,137.350995 L97.0276301,114.144773 L106.00281,102.989061 L109.236884,103.908947 L122.908574,106.467904 C122.908574,106.467904 130.204042,106.944572 131.474272,123.795216 C131.633051,125.894229 131.724975,128.001605 131.825257,130.100618 C132.301593,140.135741 132.894924,150.162502 133.922808,160.164174 C134.181868,162.681317 134.54121,165.181736 134.82534,167.690516 C135.109471,170.157484 135.351817,172.624452 135.686089,175.083057 C135.844867,176.245459 135.995289,177.416223 136.095571,178.586987 C136.404772,182.06583 136.312847,185.737012 134.908908,188.990065 C133.655391,191.883525 131.265353,193.832012 128.658038,195.496169 C128.256912,195.747048 127.855787,195.989563 127.446305,196.223716 C121.529705,199.568757 114.301092,197.093427 108.150503,195.730322 C107.440176,185.042916 106.721493,174.35551 106.011167,163.659742 C104.21446,165.466064 103.186576,167.782505 102.643385,170.282923 L102.635029,170.27456 Z" id="_路径-92" stroke="#2C333B" stroke-width="1" fill="#FFFFFF" fill-rule="nonzero"></path>
                            <g id="_形状结合-3-2" stroke="none" stroke-width="1" fill="none" fill-rule="evenodd" transform="translate(54.498148, 83.621274)">
                                <path d="M9.04386947,81.9618665 C12.5035759,81.9618665 15.3114535,84.771701 15.3114535,88.2338184 C15.3114535,91.6959358 12.5035759,94.5057702 9.04386947,94.5057702 C5.58416307,94.5057702 2.77628541,91.6959358 2.77628541,88.2338184 C2.77628541,84.771701 5.58416307,81.9618665 9.04386947,81.9618665 Z M8.60096019,0.00836260244 C13.3476105,0.00836260244 17.1917287,3.85515973 17.1917287,8.60511791 C17.1917287,8.78909517 17.1917287,8.97307242 17.1750152,9.15704967 L13.1804749,71.0821208 C13.0133394,73.6159893 10.8322201,75.5393879 8.30011616,75.3721358 C5.99364523,75.221609 4.16351068,73.390199 4.01308867,71.0821208 L0.0185484274,9.15704967 C-0.290652386,4.41545409 3.30276247,0.326141495 8.04105602,0.0167252049 C8.22490515,0.00836260244 8.40875428,0 8.59260341,0 L8.60096019,0.00836260244 Z" id="_形状结合-8" fill="#ACD1FA"></path>
                            </g>
                            <path d="M52.6949189,35.9962531 C48.1237609,35.9962531 44.4133512,39.7092485 44.4133512,44.2919547 C44.4133512,48.8746608 48.1237609,52.5960189 52.6949189,52.5960189 L52.6949189,114.010971 C52.6949189,117.197123 55.2688067,119.772804 58.4527394,119.772804 L85.361567,119.772804 C88.5454997,119.772804 91.1193875,117.197123 91.1193875,114.010971 L91.1193875,52.5709311 C91.3366638,52.5876563 91.55394,52.5960189 91.7795731,52.5960189 C96.350731,52.5960189 100.052784,48.8830234 100.052784,44.2919547 C100.052784,39.7008859 96.350731,35.9962531 91.7795731,35.9962531 C91.55394,35.9962531 91.3366638,36.0046157 91.1193875,36.0213409 L91.1193875,22.9505933 C91.1193875,19.7728043 88.5454997,17.1887602 85.361567,17.1887602 L58.4527394,17.1887602 C55.2688067,17.1887602 52.6949189,19.7728043 52.6949189,22.9505933 L52.6949189,35.9962531 Z" id="路径" stroke="#2C333B" stroke-width="1" fill="#FFFFFF" fill-rule="nonzero"></path>
                            <ellipse id="_椭圆形-34" stroke="none" fill="#2C333B" fill-rule="nonzero" cx="63.5921584" cy="44.2668669" rx="1.25351681" ry="3.21960194"></ellipse>
                            <ellipse id="_椭圆形-35" stroke="none" fill="#2C333B" fill-rule="nonzero" cx="81.7012979" cy="44.2668669" rx="1.25351681" ry="3.21960194"></ellipse>
                            <path d="M47.6056406,37.049941 C52.5695672,37.1252044 67.987824,36.2387685 72.784615,22.7749786 C72.784615,22.7749786 94.729516,45.7386849 100.052784,39.1155038 C105.376052,32.4923226 99.0917545,-0.941361923 73.0520319,0.0203373577 C48.80066,0.915135819 44.8228333,26.8141156 45.7671493,35.3774205 C45.8674307,36.3223946 46.6613246,37.0332158 47.6056406,37.0415784 L47.6056406,37.0415784 L47.6056406,37.049941 Z" id="_路径-93" stroke="none" fill="#2C333B" fill-rule="nonzero"></path>
                            <path d="M67.043508,36.9245019 C66.9265131,36.9245019 66.8095182,36.8743263 66.7259504,36.7907003 C64.9375998,35.1516302 62.1965763,35.1683554 60.4249392,36.8241507 C60.2410901,36.9746775 59.9653164,36.9495897 59.8148944,36.7656125 C59.6644724,36.5816352 59.6811859,36.3056694 59.8650351,36.1551425 C61.9960136,34.2233813 65.2468006,34.2317439 67.3527088,36.1885929 C67.4697037,36.314032 67.5031308,36.4980092 67.4362766,36.6652613 C67.3694224,36.8325133 67.2106436,36.9328645 67.0351512,36.9328645 L67.0351512,36.9328645 L67.043508,36.9245019 Z" id="_路径-94" stroke="none" fill="#2C333B" fill-rule="nonzero"></path>
                            <path d="M77.5312653,36.9245019 C77.3474162,36.9245019 77.1886374,36.8074255 77.1217832,36.6401735 C77.0549289,36.4729214 77.1134264,36.2722189 77.2471348,36.1551425 C77.2889187,36.1216921 81.4255242,32.7013877 84.7431654,36.1885929 C84.8518035,36.2973068 84.8935874,36.4645588 84.8518035,36.6150856 C84.8100196,36.7656125 84.6846679,36.8826889 84.5342459,36.9161393 C84.3838239,36.9495897 84.2166883,36.8994141 84.116407,36.7907003 C82.3364131,35.1432676 79.5786761,35.1599928 77.8153958,36.8241507 C77.7401848,36.8910515 77.6399034,36.9245019 77.5312653,36.9245019 L77.5312653,36.9245019 L77.5312653,36.9245019 Z" id="_路径-95" stroke="none" fill="#2C333B" fill-rule="nonzero"></path>
                            <path d="M51.0402767,88.9817021 C51.0402767,88.9817021 69.3917628,100.237765 93.3506475,88.9817021 L93.3506475,102.060812 L108.367779,105.405853 L81.4840217,138.864626 L71.6731634,142.209667 L45.1320341,119.772804 L38.4549679,105.405853 L50.4385886,102.361866 L51.0486335,88.9817021 L51.0402767,88.9817021 Z" id="_路径-96" stroke="#2C333B" stroke-width="1" fill="#FFFFFF" fill-rule="nonzero"></path>
                            <path d="M73.4615141,50.4886431 C73.3027353,50.4886431 73.16067,50.4050171 73.085459,50.2628528 C73.010248,50.1206886 73.0186048,49.9534365 73.1021726,49.8279975 L75.9852612,45.462719 C76.0521155,45.3540052 76.0771858,45.2285662 76.0521155,45.1031271 C76.0270451,44.9776881 75.9518341,44.8689743 75.8515528,44.8020734 L72.3417057,42.3351057 C72.216354,42.2514797 72.1494998,42.1009528 72.1578566,41.950426 C72.1745701,41.7998992 72.2664947,41.6660975 72.4002032,41.5991967 C72.5339116,41.5322959 72.7010472,41.5490211 72.8263989,41.6410097 L76.336246,44.1079774 C76.9295772,44.517745 77.088356,45.3289174 76.6955874,45.9310248 L73.8124988,50.2963032 C73.7372878,50.4133797 73.6035793,50.4886431 73.4615141,50.4886431 L73.4615141,50.4886431 L73.4615141,50.4886431 Z" id="_路径-97" stroke="none" fill="#2C333B" fill-rule="nonzero"></path>
                            <path d="M72.6091226,55.3055021 C70.5282847,55.2218761 68.5644417,56.2421136 67.4112063,57.9815349 C67.3359952,58.1153365 67.3276385,58.2825886 67.4112063,58.4163902 C67.4864173,58.5501918 67.6368393,58.6338179 67.7872613,58.6338179 C67.9460401,58.6338179 68.0881053,58.5501918 68.1633163,58.4080276 C69.1995569,57.011473 70.8374855,56.1835754 72.5756955,56.1752128 C74.3139055,56.1668502 75.9518341,56.96966 77.013145,58.357852 C77.088356,58.4916536 77.2387781,58.5752797 77.3975569,58.5752797 C77.5563356,58.5752797 77.6984009,58.4916536 77.7736119,58.3494894 C77.8488229,58.2156878 77.8488229,58.0484357 77.7652551,57.9146341 C76.6036629,56.2170258 74.6648902,55.2386013 72.6091226,55.3138647 L72.6091226,55.3055021 Z" id="_路径-98" stroke="none" fill="#2C333B" fill-rule="nonzero"></path>
                            <path d="M60.6422155,40.2779055 C60.6422155,40.2779055 63.5921584,42.4939952 63.5921584,41.7748114" id="_路径-99" stroke="none" fill="#FFFFFF" fill-rule="nonzero"></path>
                            <path d="M63.4584499,42.3601935 C63.0991084,42.3601935 62.321928,42.0925902 60.3831553,40.6291348 C60.1909494,40.4869706 60.1491655,40.2110047 60.2995876,40.0186648 C60.4500096,39.826325 60.7174265,39.784512 60.9096324,39.9350388 C61.6533857,40.520421 62.4639932,41.0305397 63.3080279,41.4486699 C63.4417364,41.3483186 63.6172287,41.3315934 63.7676507,41.3984942 C63.9180727,41.4653951 64.0183541,41.6075593 64.0350676,41.7748114 C64.0350676,41.992239 63.9180727,42.1929415 63.7258668,42.2932927 C63.642299,42.3351057 63.5503745,42.3601935 63.4584499,42.3601935 L63.4584499,42.3601935 Z" id="_路径-100" stroke="none" fill="#2C333B" fill-rule="nonzero"></path>
                            <path d="M84.4339646,40.2779055 C84.4339646,40.2779055 81.4840217,42.4939952 81.4840217,41.7748114" id="_路径-101" stroke="none" fill="#FFFFFF" fill-rule="nonzero"></path>
                            <path d="M81.6177301,42.3601935 C81.5258056,42.3601935 81.433881,42.3351057 81.3503132,42.2932927 C81.1581073,42.1929415 81.0327556,41.992239 81.0411124,41.7748114 C81.0578259,41.6075593 81.1581073,41.4653951 81.3085293,41.3984942 C81.4589513,41.3315934 81.6344437,41.3483186 81.7681521,41.4486699 C82.6205436,41.0305397 83.4227943,40.520421 84.1665476,39.9350388 C84.3587535,39.7928746 84.6345272,39.826325 84.7765925,40.0186648 C84.9186577,40.2110047 84.8852306,40.4869706 84.6930247,40.6291348 C82.754252,42.0842276 81.9770716,42.3601935 81.6177301,42.3601935 L81.6177301,42.3601935 Z" id="_路径-102" stroke="none" fill="#2C333B" fill-rule="nonzero"></path>
                            <path d="M73.4030166,144.417394 L73.4030166,191.072353 L72.5255548,192.418732 L68.0881053,199.234253 L58.8956487,213.367051 C56.4471126,216.954607 52.2854367,218.978357 47.9649821,218.668941 C33.7501015,218.668941 29.0118079,214.286937 29.0118079,214.286937 C32.2124542,209.545342 34.9534776,204.502692 37.2098079,199.242615 C41.4049108,190.194279 43.0428395,180.159157 41.9564582,170.24111 C41.3380566,167.79923 40.1346804,165.541327 38.4549679,163.659742 C38.4549679,163.659742 35.2208946,192.427094 35.2208946,192.427094 C33.465971,193.50587 31.7695449,194.626459 30.0146214,195.696872 C28.4936877,196.625121 26.8056184,197.427931 25.0089109,197.636996 C20.7469538,198.122027 15.6158916,197.846061 11.6380649,196.106639 C8.26192633,194.634821 6.4652189,191.247967 5.48747579,187.861113 C5.39555123,187.551697 5.31198344,187.233918 5.23677243,186.916139 C4.41780811,183.629637 4.3425971,180.334771 4.95264195,176.998093 C5.77160627,172.524101 6.57385703,168.050108 7.35103745,163.567753 C8.52098648,156.794045 9.6491516,150.003612 10.6519651,143.204816 C11.3037938,138.806087 11.9054819,134.398996 12.390175,129.983542 C12.6158081,127.926342 12.8247275,125.860779 12.9751495,123.795216 C14.2453799,106.944572 21.5408478,106.467904 21.5408478,106.467904 L35.2125378,103.908947 L38.4466111,102.989061 L47.4217915,114.144773 L67.7872613,137.350995 L72.5339116,143.321893 L73.4113734,144.425756 L73.4030166,144.417394 Z" id="_路径-103" stroke="#2C333B" stroke-width="1" fill="#FFFFFF" fill-rule="nonzero"></path>
                            <path d="M42.5414327,99.9116235 L27.0646785,103.1145 L43.6194572,112.196287 L38.4466111,127.499849 L67.5449147,141.247967 L72.4587006,147.728984 L79.5703193,140.854925 L106.72985,127.884529 L103.236717,114.13641 L117.719014,104.151463 L101.966486,99.9283487 C101.180949,99.7192837 100.336914,99.8363601 99.6433019,100.262853 C98.9496892,100.689346 98.4482825,101.375079 98.2644334,102.177889 C94.9467922,116.929519 85.5370593,129.573774 72.3918464,136.966315 C72.3918464,136.966315 50.9650657,122.68299 46.987239,102.796721 C46.5526865,100.772972 44.5637732,99.4767682 42.5414327,99.9116235 L42.5414327,99.9116235 Z" id="_路径-104" stroke="#2C333B" stroke-width="1" fill="#FFFFFF" fill-rule="nonzero"></path>
                            <path d="M46.0262095,178.59535 C45.9509985,178.59535 45.8841442,178.578625 45.81729,178.545174 C45.4997324,178.386285 45.3325968,177.917979 45.4495917,177.491486 L45.4495917,177.491486 C45.4495917,177.491486 45.4579485,174.840541 38.7975959,164.194948 C31.276495,152.177889 35.7055877,134.482622 35.8977936,133.729988 C36.0064318,133.303495 36.3574165,133.069342 36.6749741,133.219869 C36.9925316,133.370396 37.168024,133.838702 37.0510291,134.265194 C37.0092452,134.440809 32.6553635,151.835022 39.7335551,163.132898 C46.8033899,174.422411 46.7783195,177.40786 46.6028272,178.051781 C46.5109026,178.377922 46.2852696,178.59535 46.0262095,178.59535 L46.0262095,178.59535 Z" id="_路径-105" stroke="none" fill="#2C333B" fill-rule="nonzero"></path>
                            <path d="M99.8772917,178.653888 C99.601518,178.637163 99.3675282,178.40301 99.2672468,178.051781 C99.0917545,177.40786 98.7412356,174.006409 105.719146,162.716895 C112.722126,151.402294 108.743834,134.440809 108.70205,134.265194 C108.593412,133.838702 108.760547,133.370396 109.078105,133.219869 C109.395663,133.069342 109.738291,133.303495 109.846929,133.729988 C110.039135,134.474259 113.89941,151.856577 106.461877,163.882 C99.8516652,174.569406 100.420482,177.516574 100.428839,177.616925 C100.47898,177.817628 100.470623,178.035056 100.403769,178.219033 C100.336914,178.40301 100.211563,178.545174 100.061141,178.603713 C100.002643,178.6288 99.9441459,178.645526 99.8772917,178.645526 L99.8772917,178.653888 Z" id="_路径-106" stroke="none" fill="#2C333B" fill-rule="nonzero"></path>
                            <path d="M91.9884925,115.675129 C92.3144069,115.792206 92.6737484,115.77548 93.0080195,115.608228 L104.206103,110.005285 C104.866289,109.670781 105.133705,108.876333 104.807791,108.215688 L103.470707,105.539655 C103.144792,104.879009 102.342541,104.611406 101.682356,104.937548 L90.4842724,110.548854 C90.2168554,110.682655 90.007936,110.900083 89.8825843,111.159324" id="路径" stroke="#2C333B" stroke-width="1" fill="#FFFFFF" fill-rule="nonzero"></path>
                            <path d="M105.651826,105.272052 L105.651826,105.272052 C106.947126,105.497842 107.807875,106.735507 107.582242,108.03171 L102.208833,138.513396 C101.9832,139.8096 100.746397,140.670948 99.4510959,140.445158 L99.4510959,140.445158 C98.1557952,140.219367 97.295047,138.981702 97.5206801,137.685499 L102.894089,107.203813 C103.119722,105.907609 104.356525,105.046261 105.651826,105.272052 L105.651826,105.272052 Z" id="_矩形-14" stroke="none" fill="#3399FF" fill-rule="evenodd"></path>
                            <g id="_编组-325-3" stroke="none" stroke-width="1" fill="none" fill-rule="evenodd" transform="translate(88.787846, 68.183910)">
                                <path d="M19.2205911,0 L19.2205911,0 C8.6074821,0 0,8.61348052 0,19.2339856 L0,19.2339856 C0,29.8544907 8.6074821,38.4679712 19.2205911,38.4679712 L19.2205911,38.4679712 C29.8337001,38.4679712 38.4411822,29.8544907 38.4411822,19.2339856 L38.4411822,19.2339856 C38.4411822,8.61348052 29.8337001,0 19.2205911,0 L19.2205911,0 Z" id="_矩形备份-99-3" stroke="#3399FF" stroke-width="4" fill="#87BBF5"></path>
                                <path d="M18.0255717,27.5464124 C18.8361793,27.6885767 19.3710131,28.4579361 19.2289479,29.2691085 C19.0868826,30.080281 18.318059,30.6154875 17.5074515,30.4733233 C16.6968439,30.3311591 16.1620101,29.5617996 16.3040753,28.7506272 C16.4461406,27.9394548 17.2149642,27.4042482 18.0255717,27.5464124 Z M21.5354188,7.61833082 C22.5967297,7.80230808 23.3070559,8.82254558 23.11485,9.88459609 C23.11485,9.9264091 23.0981364,9.96822211 23.0897797,10.0100351 L19.7721385,23.6327145 C19.63843,24.1930089 19.0701691,24.5358756 18.5102649,24.4020739 C18.0005014,24.2766349 17.6662303,23.7916039 17.7163709,23.2731226 L19.2540182,9.33266433 C19.3710131,8.26225121 20.3403995,7.48452919 21.4100671,7.60160562 C21.451851,7.60160562 21.4936349,7.60996822 21.5354188,7.61833082 L21.5354188,7.61833082 Z" id="_形状结合-9" fill="#FFFFFF"></path>
                            </g>
                            <path d="M86.6652245,131.196119 C85.9883254,134.173206 85.9716118,137.259006 86.6234406,140.236093 L82.8461766,144.425756 C82.8461766,144.425756 78.2666618,135.327245 78.2415915,131.279745 C78.2081644,127.240608 86.6735813,131.196119 86.6735813,131.196119 L86.6652245,131.196119 Z" id="_路径-107" stroke="none" fill="#6380FE" fill-rule="nonzero"></path>
                            <path d="M105.392766,108.976685 C105.476333,108.951597 105.559901,108.926509 105.643469,108.909784 C105.660183,108.909784 105.685253,108.901421 105.701966,108.901421 C105.885816,108.859608 106.069665,108.842883 106.253514,108.842883 C107.590598,108.842883 108.785618,109.779494 109.078105,111.150961 L109.228527,111.88687 L110.164486,116.394313 C110.498757,117.966482 109.487587,119.505201 107.916513,119.839705 C106.353795,120.174209 104.816148,119.170697 104.490234,117.598528 L104.030611,115.415888 L97.7379563,117.230573 C97.0025598,117.448001 96.2086658,117.356012 95.5317667,116.979695 C94.8632244,116.611741 94.3701745,115.984545 94.1528982,115.240274 C94.0776872,114.972671 94.0442601,114.705067 94.0442601,114.445827 C94.0442601,113.183074 94.8715812,112.012309 96.1501683,111.644355 L105.392766,108.976685 C105.476333,108.951597 105.559901,108.926509 105.643469,108.909784 C105.660183,108.909784 105.685253,108.901421 105.701966,108.901421 C106.395579,108.734169 107.122619,108.83452 107.74102,109.18575 C108.41792,109.553704 108.910969,110.180899 109.119889,110.925171 C109.211814,111.24295 109.245241,111.569091 109.228527,111.88687 L109.228527,111.88687" id="路径" stroke="#2C333B" stroke-width="1" fill="#FFFFFF" fill-rule="nonzero"></path>
                            <path d="M107.515387,113.818631 L107.548815,113.818631 C107.615669,113.810269 107.69088,113.810269 107.766091,113.810269 C108.643553,113.810269 109.504301,114.211674 110.072562,114.964308 L113.289922,119.237598 C113.757901,119.848068 113.958464,120.62579 113.849826,121.386787 C113.741188,122.147783 113.331705,122.841879 112.721661,123.310185 C111.443073,124.280247 109.621296,124.029369 108.660266,122.741528 L106.604499,120.023682 L98.9496892,122.231409 C98.2059359,122.448837 97.4120419,122.356848 96.7434996,121.980531 C96.0666006,121.612577 95.5735506,120.985382 95.3646311,120.24111 C95.2894201,119.973507 95.2476362,119.705904 95.2476362,119.4383 C95.2476362,118.175547 96.0833141,117.013146 97.3535445,116.645191 L106.746564,113.935708 C106.997267,113.860444 107.256327,113.818631 107.515387,113.818631 L107.548815,113.818631" id="路径" stroke="#2C333B" stroke-width="1" fill="#FFFFFF" fill-rule="nonzero"></path>
                            <path d="M106.2368,125.041244 L108.359422,127.851078 C109.328808,129.130556 111.142229,129.389797 112.429173,128.419735 C113.70776,127.449673 113.958464,125.626626 112.997434,124.347148 L109.780074,120.073858 C109.470874,119.672453 109.078105,119.363037 108.643553,119.170697 C108.000081,118.82783 107.214543,118.719116 106.454077,118.936544 L97.0610572,121.646027 C95.7824701,122.013982 94.955149,123.184746 94.955149,124.455862 C94.955149,124.715102 94.9885761,124.982706 95.0637871,125.241946 C95.5066964,126.789028 97.1111979,127.675464 98.657202,127.232246 L106.2368,125.041244 Z" id="路径" stroke="#2C333B" stroke-width="1" fill="#FFFFFF" fill-rule="nonzero"></path>
                            <path d="M108.626839,125.183408 L108.626839,125.183408 C108.835758,125.92768 108.743834,126.722127 108.376136,127.391135 C108.008437,128.060143 107.373322,128.561899 106.637926,128.779327 L97.2449064,131.48881 C95.7072591,131.932028 94.1027576,131.045592 93.6598483,129.498511 L93.6598483,129.498511 C93.216939,127.95143 94.1111143,126.34581 95.6571184,125.902592 L105.050138,123.193109 C106.587785,122.749891 108.192287,123.636327 108.635196,125.183408 L108.635196,125.183408 L108.626839,125.183408 Z" id="_路径-108" stroke="#000000" stroke-width="1" fill="#FFFFFF" fill-rule="nonzero"></path>
                            <path d="M104.089108,127.274059 L104.089108,127.274059 C104.089108,127.274059 105.033424,130.058805 105.033424,130.058805 C103.947043,130.527111 103.278501,131.605887 103.278501,132.734838 C103.278501,133.044254 103.328641,133.362033 103.437279,133.67145 C103.687983,134.398996 104.21446,135.001103 104.908072,135.335607 C105.593328,135.678474 106.395579,135.720287 107.122619,135.469409 L109.119889,134.783676 C109.846929,134.532798 110.448617,133.997591 110.782888,133.311858 C110.991807,132.885365 111.092089,132.425422 111.083732,131.965479 C111.342792,131.321558 111.359506,130.610737 111.133873,129.941729 L110.807958,128.996755 L109.404019,124.882354 C109.161673,124.154808 108.626839,123.552701 107.941583,123.209834 C107.540458,123.017494 107.105905,122.917143 106.671353,122.917143 C106.353795,122.917143 106.036238,122.967318 105.727037,123.076032 C105.217273,123.251647 104.782721,123.552701 104.456806,123.93738 L104.456806,123.93738" id="路径" stroke="#2C333B" stroke-width="1" fill="#FFFFFF" fill-rule="nonzero"></path>
                            <path d="M90.6346944,111.008797 C96.3674446,110.147449 102.133622,114.069509 103.921973,120.316373 C105.852388,127.056631 102.426109,133.955778 96.2671632,135.720287 C90.1082173,137.484796 83.548146,133.454022 81.6177301,126.713764 C79.6873142,119.973507 83.1135935,113.07436 89.2725394,111.309851 C89.7238055,111.176049 90.1834283,111.08406 90.6346944,111.008797 Z" id="_椭圆形-36" stroke="none" fill="#FFFFFF" fill-rule="nonzero"></path>
                            <path d="M81.7012979,118.911456 C80.9324743,121.319886 80.8489065,124.029369 81.6177301,126.722127 C83.2890859,132.567586 88.4452183,136.37257 93.7935567,136.130055 C94.6125211,136.096604 95.4481989,135.962803 96.2671632,135.72865 C97.1279115,135.477772 97.938519,135.134905 98.6822723,134.70005 L98.6906291,134.70005 C99.2672468,134.365546 99.8020807,133.980866 100.303487,133.554373" id="路径" stroke="#000000" stroke-width="1" fill="#FFFFFF" fill-rule="nonzero"></path>
                            <path d="M89.8825843,111.159324 C89.6820216,111.201137 89.4731021,111.251312 89.2725394,111.309851 C85.5704865,112.371901 82.8545334,115.290449 81.7012979,118.911456 L70.9377669,131.806589 L70.4697873,137.576785 L80.1720074,146.934537 L90.8185435,137.309182 L93.7935567,136.130055 L98.7909104,134.666599 C99.0499706,134.591336 99.2923172,134.457534 99.5012366,134.273557 L100.303487,133.554373 C102.158692,131.957116 103.479063,129.749389 104.089108,127.274059" id="路径" stroke="#2C333B" stroke-width="1" fill="#FFFFFF" fill-rule="nonzero"></path>
                            <path d="M33.4743278,194.14979 L86.0718932,146.232078 C87.0914202,145.354005 87.400621,143.589496 87.2919829,142.243117 C87.1833448,140.905101 84.5091756,140.553871 83.3642969,139.834688 L69.0742052,130.451848 C67.4697037,129.439973 66.6590962,129.699213 65.2384438,130.936879 L10.0084931,173.920655 C4.17546153,178.954942 3.58213024,187.7524 8.67976527,193.572771 C13.7774003,199.393142 27.649653,199.19244 33.4826846,194.14979 L33.4743278,194.14979 Z" id="_路径-109" stroke="#2C333B" stroke-width="1" fill="#FFFFFF" fill-rule="nonzero"></path>
                            <path d="M83.2807291,145.956113 C79.4867515,147.921324 75.0743724,146.156815 72.0575752,143.589496 C70.5199279,142.28493 69.2580544,140.67931 68.2635977,138.931527 C67.7705477,138.061816 67.3694224,137.150292 66.9766538,136.230406 C66.5838852,135.31052 66.0574081,134.424084 65.9738403,133.420572 C65.8986293,132.45051 66.5170309,131.814952 67.2106436,131.22957 C68.288668,130.326409 69.3666925,129.414885 70.4447169,128.511724 C71.272038,127.817628 72.4670574,126.479611 73.7122174,126.906104 C74.5562521,127.198795 74.8069554,128.428098 75.1161563,129.147282 C75.9351206,131.053955 76.8376527,133.044254 78.2499483,134.591336 C78.6928576,135.109817 79.1775507,135.594848 79.6706007,136.054791 C82.2110614,138.555209 85.7794059,139.751062 89.3143233,139.299481 C89.5483131,139.266031 89.7739462,139.383107 89.8909411,139.58381 C90.007936,139.784512 89.9912224,140.03539 89.8491572,140.219367 C88.3365802,142.159491 85.8379034,144.634821 83.2807291,145.956113 L83.2807291,145.956113 Z" id="_路径-110" stroke="#2C333B" stroke-width="1" fill="#FFFFFF" fill-rule="nonzero"></path>
                            <path d="M15.0894146,176.404348 C15.0894146,176.404348 15.1311985,176.454524 15.1395552,176.479611 C15.1813391,176.529787 15.223123,176.579963 15.2565501,176.638501 C15.2565501,176.638501 15.2565501,176.638501 15.2732637,176.655226 C15.2899773,176.671951 15.2899773,176.688677 15.298334,176.705402 L16.0588009,177.968155 L17.6382321,180.585649 C18.3819854,181.823314 17.9892168,183.445659 16.7524135,184.198294 C16.3429314,184.457534 15.8749518,184.582973 15.3986154,184.582973 C15.1896959,184.582973 14.9807764,184.557885 14.771857,184.50771 C14.1033147,184.340458 13.5183402,183.913965 13.1589987,183.311858 L10.8191006,179.439973 C10.6185379,179.105469 10.501543,178.745877 10.4681159,178.377922 C10.4681159,178.377922 10.4681159,178.372347 10.4681159,178.361197" id="路径" stroke="#000000" stroke-width="1" fill="#FFFFFF" fill-rule="nonzero"></path>
                            <path d="M9.49037281,183.06098 C9.49037281,183.06098 9.49037281,183.077705 9.49037281,183.086067 C9.52379992,183.454022 9.6491516,183.821976 9.84971429,184.156481 L12.1896123,188.036728 C12.6743055,188.856263 13.5434105,189.307844 14.429229,189.307844 C14.8888519,189.307844 15.3568315,189.182405 15.7830272,188.923164 C17.0198305,188.162167 17.4125991,186.548185 16.660489,185.302157 L15.0894146,182.684662" id="路径" stroke="#000000" stroke-width="1" fill="#FFFFFF" fill-rule="nonzero"></path>
                            <path d="M24.6829966,171.84673 C24.515861,171.796554 24.3320119,171.771466 24.1481627,171.763104 L15.3484747,171.386787 L15.223123,171.386787 C15.0977713,171.386787 14.9724197,171.386787 14.8554248,171.420237 L14.8387112,171.420237 C13.9946765,171.386787 13.1506419,171.779829 12.6158081,172.532463 L10.0252066,176.245459 C9.62408127,176.814116 9.47365925,177.524937 9.59065415,178.21067 C9.59901093,178.269208 9.60736771,178.319384 9.63243805,178.377922 C9.71600583,178.762602 9.89149819,179.113831 10.1422016,179.414885 C10.2842668,179.607225 10.4681159,179.774477 10.6686786,179.916641 C11.2369396,180.318046 11.938909,180.476935 12.6241648,180.351496 C13.3010639,180.23442 13.9111088,179.841378 14.3122341,179.272721 L15.223123,177.968155 L15.5741077,177.466399 L16.1172984,176.688677 L22.6857264,176.981368 L22.6857264,176.981368" id="路径" stroke="#2C333B" stroke-width="1" fill="#FFFFFF" fill-rule="nonzero"></path>
                            <path d="M19.0254574,181.530623 C19.0254574,181.530623 19.0254574,181.538986 19.0254574,181.547349" id="路径" stroke="#000000" stroke-width="1" fill="none"></path>
                            <path d="M23.721967,176.471249 L15.223123,176.103294 C15.0476307,176.094932 14.8804951,176.103294 14.7050027,176.136745 L14.6715756,176.136745 C13.827541,176.111657 13.0002199,176.504699 12.4904564,177.248971 L10.9778794,179.414885 L9.89985497,180.961966 C9.5739406,181.42191 9.42351858,181.948753 9.42351858,182.475597 C9.42351858,182.6763 9.44858892,182.86864 9.49037281,183.06098 C9.49037281,183.06098 9.49037281,183.077705 9.49037281,183.086067 C9.63243805,183.696537 9.98342275,184.248469 10.5266134,184.633149 C11.713276,185.469409 13.3428478,185.185081 14.1785257,183.989228 L15.0894146,182.684662 L15.9752331,181.413547 L21.6996265,181.656062" id="路径" stroke="#2C333B" stroke-width="1" fill="#FFFFFF" fill-rule="nonzero"></path>
                            <path d="M23.9810271,172.181234 L16.4599263,171.344974 L17.7468702,169.764442 C18.1396388,169.187422 18.7496837,168.802742 19.4349395,168.677303 C19.6104319,168.643853 19.794281,168.63549 19.9697733,168.652216 C20.095125,168.627128 20.2204767,168.618765 20.3458284,168.618765 L20.4711801,168.618765 L26.6719099,168.886368 L26.6969802,168.886368 C26.8891861,168.811105 27.0479649,168.744204 27.2401709,168.694029 C33.2486948,167.088409 43.7531656,174.204984 43.7531656,174.204984 L46.2518425,175.977855 L66.3916793,175.977855 L66.3916793,191.799899 L46.6696814,189.985214 C46.2100586,190.386619 45.7587925,190.721123 45.3409536,190.938551 C42.8088496,192.268205 23.9893839,191.967151 20.245547,187.660411 C20.0282708,187.409533 19.8444217,187.133567 19.6939997,186.832513 L16.9947601,186.715437 L17.7886541,188.028365 C18.1479956,188.62211 18.2566337,189.341294 18.0894981,190.018665 C17.9307193,190.696036 17.5045236,191.281418 16.9111923,191.649372 C16.4849966,191.908613 16.017017,192.034052 15.5573942,192.034052 C14.6715756,192.034052 13.8024706,191.582471 13.3094207,190.762936 L10.9695226,186.882689 C10.5683973,186.213681 10.501543,185.435959 10.7188193,184.741863 C10.8943116,184.139755 11.2870802,183.612911 11.8553412,183.261682 C11.9221954,183.219869 11.9974064,183.186419 12.0642607,183.152968 C12.4068886,182.090918 13.4013453,181.338284 14.5545807,181.338284 L14.6632188,181.338284 L19.0254574,181.530623" id="路径" stroke="#2C333B" stroke-width="1" fill="#FFFFFF" fill-rule="nonzero"></path>
                            <path d="M135.995162,177.86915 C136.38793,182.836536 137.081671,189.868138 132.936708,193.823649 C131.290423,195.387456 129.243012,196.533132 127.028466,197.051613 C124.053453,197.754072 120.961444,197.720622 117.919577,197.62027 C113.314992,197.469744 108.72712,197.068339 104.122535,196.884361 C100.328558,196.733835 96.5345802,196.583308 92.7322458,196.432781 C88.8129166,196.273891 84.8852306,196.115002 80.9659014,195.964475 C77.3307026,195.822311 73.7038606,195.671784 70.0686619,195.52962 C67.1437893,195.412543 64.2272736,195.295467 61.302401,195.178391 C59.5056936,195.103127 57.7089861,195.036226 55.9122787,194.960963 C55.5445804,194.944238 55.185239,194.935875 54.8175407,194.91915 C53.5138832,194.902425 52.1935122,193.790199 51.4414021,192.728148 C50.689292,191.666098 52.4609291,189.751062 52.8536977,188.496671 L57.2744336,173.860776 C57.8343378,172.112992 58.5948047,171.803576 60.4165825,171.828664 L106.843107,170.634152" id="_路径-111" stroke="#2C333B" stroke-width="1" fill="#FFFFFF" fill-rule="nonzero"></path>
                            <path d="M56.9735896,193.89055 C57.8343378,193.915638 58.8872919,193.12119 59.5474775,192.636159 C60.358085,192.042415 61.076768,191.323231 61.6700993,190.512058 C64.2774142,186.957952 63.8679321,182.29162 62.7481237,178.277571 C62.4890636,177.349322 62.1798628,176.421073 61.8790187,175.50955 C61.377612,173.995919 60.0238139,173.770128 58.5948047,173.887205 C57.0488006,174.012644 55.5111533,174.121358 53.9567925,174.037732 C53.371818,174.004281 52.0681605,173.929018 52.0681605,174.807091 C52.0681605,175.024519 52.1517283,175.233584 52.2269393,175.434286 C53.3383909,178.311021 53.7729434,181.246295 53.4804561,184.307007 C53.1545417,187.702224 51.2826233,190.771299 48.4162482,192.611072 C48.232399,192.728148 48.1321177,192.953938 48.1655448,193.171366 C48.2073287,193.388794 48.3661075,193.564408 48.5833838,193.606221 C48.5833838,193.606221 56.9234489,193.882187 56.9568761,193.882187 L56.9735896,193.89055 Z" id="_路径-112" stroke="#2C333B" stroke-width="1" fill="#FFFFFF" fill-rule="nonzero"></path>
                        </g>
                    </g>
                </g>
            </g>
        </g>
    </g>
</svg>