<?xml version="1.0" encoding="UTF-8"?>
<svg width="342px" height="201px" viewBox="0 0 342 201" version="1.1" xmlns="http://www.w3.org/2000/svg" xmlns:xlink="http://www.w3.org/1999/xlink">
    <title>404插图</title>
    <g id="ICMS_V2.3（看板）" stroke="none" stroke-width="1" fill="none" fill-rule="evenodd">
        <g id="404插图" transform="translate(1.000000, 0.000000)">
            <g id="编组-84" transform="translate(25.718022, 38.248083)">
                <path d="M82.3297561,0 C83.7063415,0 84.817561,1.11392522 84.817561,2.49386243 L84.817561,2.49386243 L84.817561,76.7112083 L103.559024,76.7112083 C104.93561,76.7112083 106.046829,77.8251335 106.046829,79.2050707 L106.046829,79.2050707 L106.046829,107.543661 C106.046829,108.923598 104.93561,110.037523 103.559024,110.037523 L84.817561,110.037523 L84.817561,159.233116 C84.817561,160.613053 83.7063415,161.726978 82.3297561,161.726978 L48.4043902,161.726978 C47.0278049,161.726978 45.9165854,160.613053 45.9165854,159.233116 L45.9165854,159.233116 L45.9165854,110.037523 L2.48780488,110.037523 C1.11121951,110.037523 0,108.923598 0,107.543661 L0,107.543661 L0,76.8940915 C0,76.3620676 0.165853659,75.8466693 0.48097561,75.4227127 L0.48097561,75.4227127 L54.7565854,1.0224836 C55.2209756,0.382392239 55.9673171,0 56.7634146,0 L82.3380488,0 L82.3297561,0 Z M53.38,52.2214792 C41.9278049,52.2214792 32.6482927,61.5235861 32.6482927,73.0036661 C32.6482927,84.4837462 41.9278049,93.7858531 53.38,93.7858531 C64.8321951,93.7858531 74.1117073,84.4837462 74.1117073,73.0036661 C74.1117073,61.5235861 64.8321951,52.2214792 53.38,52.2214792 Z" id="_形状结合-10" stroke="#E1E8F0" fill="#F1F4F8"></path>
                <g id="_编组-222-2" transform="translate(95.357561, 0.000000)">
                    <g id="_编组-219-7" fill-rule="nonzero">
                        <rect id="_矩形-15" fill="#CBD5E1" x="0" y="0" width="97.8536585" height="161.26977" rx="6"></rect>
                        <rect id="_矩形备份-86-7" fill="#FFFFFF" x="1.65853659" y="9.97544971" width="94.5365854" height="149.631746" rx="6"></rect>
                        <g id="编组" transform="translate(7.463415, 16.625750)" fill="#F1F4F8">
                            <ellipse id="_椭圆形-37" cx="1.24390244" cy="1.24693121" rx="1.24390244" ry="1.24693121"></ellipse>
                            <ellipse id="_椭圆形备份-60-11" cx="8.70731707" cy="1.24693121" rx="1.24390244" ry="1.24693121"></ellipse>
                            <ellipse id="_椭圆形备份-61-11" cx="16.1707317" cy="1.24693121" rx="1.24390244" ry="1.24693121"></ellipse>
                        </g>
                        <g id="编组" transform="translate(7.463415, 16.625750)" fill="#F1F4F8">
                            <ellipse id="_椭圆形-38" cx="1.24390244" cy="1.24693121" rx="1.24390244" ry="1.24693121"></ellipse>
                            <ellipse id="_椭圆形备份-60-12" cx="1.24390244" cy="8.7285185" rx="1.24390244" ry="1.24693121"></ellipse>
                            <ellipse id="_椭圆形备份-61-12" cx="1.24390244" cy="16.2101058" rx="1.24390244" ry="1.24693121"></ellipse>
                        </g>
                        <ellipse id="_椭圆形-39" fill="#F45D4A" cx="8.87317073" cy="5.16229523" rx="1.40146341" ry="1.40487583"></ellipse>
                        <ellipse id="_椭圆形备份-57-5" fill="#FFBA38" cx="13.5502439" cy="5.16229523" rx="1.40146341" ry="1.40487583"></ellipse>
                        <ellipse id="_椭圆形备份-58-5" fill="#9CDBB7" cx="18.2190244" cy="5.16229523" rx="1.40146341" ry="1.40487583"></ellipse>
                    </g>
                    <g id="_编组-221-2" transform="translate(4.486341, 66.011913)" stroke="#F1F4F8" stroke-linecap="round">
                        <g id="编组">
                            <path d="M0,28.995933 C2.96878049,11.2562583 11.5185366,6.35997505 25.6492683,14.3237091" id="_路径-63-2"></path>
                            <path d="M20.8146341,11.8215338 C32.0926829,-3.53234592 42.9809756,-3.9313639 53.4629268,10.6327927" id="_路径-64-2"></path>
                        </g>
                    </g>
                    <g id="_编组-220-2" transform="translate(40.144878, 40.242001)" stroke="#F1F4F8" stroke-linecap="round">
                        <g id="编组" transform="translate(0.000000, 0.000000)">
                            <path d="M53.4629268,28.995933 C50.4941463,11.2562583 41.9443902,6.35997505 27.8136585,14.3237091" id="_路径-63备份-2-2"></path>
                            <path d="M32.6482927,11.8215338 C21.3702439,-3.53234592 10.4819512,-3.9313639 0,10.6327927" id="_路径-64备份-2"></path>
                        </g>
                    </g>
                    <path d="M21.1960976,42.0298948 L21.1960976,51.4234433 L32.9136585,56.3612909 L21.1960976,42.0382077 L21.1960976,42.0298948 Z M22.0253659,44.3574997 L30.1604878,54.2996979 L22.0253659,50.8747935 L22.0253659,44.3574997 L22.0253659,44.3574997 Z" id="_路径-67-7" fill="#F1F4F8" fill-rule="nonzero"></path>
                    <path d="M34.0580488,50.3926468 L34.4478049,30.4500602 L26.4536585,35.2299632 L34.0580488,50.3926468 Z M33.5853659,31.929752 L33.2868293,47.0176196 L27.5317073,35.5458525 L33.5853659,31.929752 L33.5853659,31.929752 Z" id="_路径-68-6" fill="#F1F4F8" fill-rule="nonzero"></path>
                </g>
                <path d="M265.598049,0 C266.974634,0 268.085854,1.11392522 268.085854,2.49386243 L268.085854,2.49386243 L268.085854,76.7112083 L286.827317,76.7112083 C288.203902,76.7112083 289.315122,77.8251335 289.315122,79.2050707 L289.315122,79.2050707 L289.315122,107.543661 C289.315122,108.923598 288.203902,110.037523 286.827317,110.037523 L268.085854,110.037523 L268.085854,159.233116 C268.085854,160.613053 266.974634,161.726978 265.598049,161.726978 L231.672683,161.726978 C230.296098,161.726978 229.184878,160.613053 229.184878,159.233116 L229.184878,159.233116 L229.184878,110.037523 L185.756098,110.037523 C184.379512,110.037523 183.268293,108.923598 183.268293,107.543661 L183.268293,107.543661 L183.268293,76.8940915 C183.268293,76.3620676 183.434146,75.8466693 183.749268,75.4227127 L183.749268,75.4227127 L238.024878,1.0224836 C238.489268,0.382392239 239.23561,0 240.031707,0 L265.606341,0 L265.598049,0 Z M229.798537,58.1069946 C226.887805,55.1891755 222.160976,55.1891755 219.241951,58.1069946 C216.33122,61.0248136 216.33122,65.7631522 219.241951,68.6892841 L219.241951,68.6892841 L225.519512,74.9821303 L219.241951,81.2749765 L219.076098,81.4495469 C216.33122,84.3839917 216.389268,88.9893243 219.241951,91.8572661 L219.241951,91.8572661 L219.416098,92.0235236 C222.343415,94.7750851 226.937561,94.716895 229.798537,91.8572661 L229.798537,91.8572661 L236.076098,85.5644199 L242.353659,91.8572661 C245.26439,94.7750851 249.99122,94.7750851 252.910244,91.8572661 C255.820976,88.9394471 255.820976,84.2011085 252.910244,81.2749765 L252.910244,81.2749765 L246.632683,74.9821303 L252.910244,68.6892841 L253.076098,68.5147138 C255.820976,65.580269 255.762927,60.9749364 252.910244,58.1069946 L252.910244,58.1069946 L252.736098,57.9407371 C249.80878,55.1891755 245.214634,55.2473657 242.353659,58.1069946 L242.353659,58.1069946 L236.076098,64.3998408 L229.798537,58.1069946 Z" id="_形状结合-11" stroke="#E1E8F0" fill="#F1F4F8"></path>
            </g>
            <g id="人物">
                <line x1="83.6720137" y1="157.042376" x2="83.6720137" y2="157.033782" id="路径" stroke="#000000"></line>
                <line x1="20.7134752" y1="110.533112" x2="20.7049071" y2="110.533112" id="路径" stroke="#000000"></line>
                <g id="编组-2" transform="translate(0.000000, 94.104042)" stroke="#2C333B">
                    <path d="M3.96096328,16.3946955 L16.7703012,21.3704649 C16.7703012,21.3704649 16.1276923,22.6079619 15.9049212,23.3212414 L3.60110228,20.5626543 C2.02456838,20.2103114 0.456602602,21.207184 0.105309722,22.7884302 L0.0710372461,22.9173362 C-0.280255633,24.4985824 0.705078053,26.0712349 2.28161195,26.4235778 L2.28161195,26.4235778 L17.7727711,29.8954444" id="路径"></path>
                    <path d="M17.7813392,29.8954444 C18.4496525,30.4454431 19.2379195,30.8407547 20.0861633,31.0641916 C23.1107093,31.8548147 26.1352553,32.6368441 29.1598013,33.4274672 C32.595617,34.3212151 36.2370676,34.6219956 39.6214746,35.6532431 C42.7745424,36.6157408 45.7562478,38.7555795 48.4123647,40.6633874 C56.8433938,46.7391541 64.8288807,53.5282003 73.0028663,59.9305287 C78.6406886,64.3477056 84.2785109,68.7648826 89.9249013,73.1820595 L90.1562405,73.3625278 C92.8209255,74.9179928 96.0082658,75.2187733 98.9642668,74.1961195 C100.36087,73.706277 101.654656,72.9586225 102.768512,71.9703436 L102.717103,72.0047185 C102.717103,72.0047185 102.742807,71.9789373 102.768512,71.9703436 C103.890935,71.1109707 104.867701,70.0625357 105.673104,68.8594136 C115.749212,53.8031997 127.136242,39.6321399 138.154843,25.272018 C141.642068,20.7259352 145.326359,15.5267289 144.658046,9.82049254 C144.238208,6.24550111 141.976224,2.94550902 138.80602,1.26113805 C135.635816,-0.414639181 131.634505,-0.42323291 128.464301,1.25254432 C125.516868,2.80800935 123.434815,5.57519022 121.455579,8.25643379 C121.455579,8.47127703 120.90722,9.00408825 120.77013,9.18455657 C120.49595,9.5454932 120.230338,9.91502357 119.956158,10.2759602 C119.433503,10.980646 118.919416,11.6767381 118.396761,12.3814239 C117.360018,13.7822018 116.323276,15.1915734 115.286534,16.5923513 C113.213049,19.4025008 111.130996,22.2040566 109.057511,25.0142061 C104.901973,30.6259114 100.755004,36.2462105 96.599466,41.8579158 C96.0082658,42.6571326 95.4856105,43.4477557 94.8258654,44.1954102 C92.3325427,41.9610405 89.2480199,40.8610432 86.4119725,39.1680785 C84.432737,37.9821438 82.487774,36.7274593 80.542811,35.4899623 C70.8437003,29.3282583 60.9989315,23.7853028 50.2031016,19.8579685 C46.5188104,18.5173467 43.0572903,16.6611012 39.4758166,15.0884487 L31.4988978,1.70801198 C30.6420859,0.281452901 28.8085084,-0.182608487 27.3862006,0.668170725 L27.1120208,0.831451583 C25.6897131,1.68223079 25.2270347,3.52988262 26.0752784,4.9564417 L31.4560572,13.9798576 C30.2136799,13.9626701 27.7889022,14.1947008 27.771766,14.2032945 C27.771766,14.2032945 26.837841,13.584546 26.8292729,13.584546 L9.37601449,6.80409352 C7.83375307,6.21112619 6.10299303,6.97596811 5.49465658,8.5228394 L5.38327103,8.8150262 C5.19477241,9.29627505 5.1433637,9.79471136 5.20334053,10.2759602 C5.33186232,11.3329889 6.02587996,12.2954866 7.09689483,12.7079856 L16.6160751,16.4032893 L19.8633922,17.6665675" id="路径" fill="#FFFFFF" fill-rule="nonzero"></path>
                    <path d="M3.96096328,16.4032893 L3.96096328,16.4032893 C2.41870185,15.7931345 1.64757114,14.0572011 2.25590759,12.5103298 L2.36729314,12.2095493 C2.82997157,11.0064272 3.98666763,10.2759602 5.20334053,10.2931477" id="路径"></path>
                </g>
                <g id="编组-3" transform="translate(209.106432, 79.229513)" fill="#FFFFFF" fill-rule="nonzero" stroke="#2C333B">
                    <path d="M109.299609,16.1700415 L124.593702,10.2833368 C124.936426,10.1544309 125.287719,10.0856811 125.630444,10.0767939 C126.864253,10.0598999 128.038085,10.7989606 128.509332,12.0106764 L128.603581,12.2427071 C129.211918,13.8067659 128.449355,15.5770741 126.864253,16.1958227 L114.089188,21.1114359 C114.431913,21.6872158 114.740365,22.3489329 114.971704,23.0622125 L127.284091,20.346594 C128.877761,19.9942511 130.445727,20.9911237 130.814156,22.5895573 L130.814156,22.6497135 C131.191153,24.2481471 130.188683,25.8379871 128.595013,26.2075174 L128.569309,26.2075174 C128.569309,26.2075174 113.095286,29.6278217 113.086718,29.6364155 C112.418405,30.1778204 111.638706,30.573132 110.79903,30.7879752 C104.818483,32.4035963 98.846504,34.0192175 92.865957,35.6262449 C89.3187557,36.5801488 86.3970271,37.2762409 83.5181391,39.6738914 C81.1619064,41.6418554 79.0370129,43.7301317 76.4922815,45.4574713 C73.647666,47.3824667 70.9058679,49.5394928 68.104093,51.5590192 C62.6376331,55.5121347 56.9826746,59.344938 51.833235,63.7019588 C46.6666593,68.0761671 41.6971502,72.5792813 35.6394901,75.7073988 C33.7973445,76.6613028 31.818109,77.4948945 29.7360561,77.5035618 C23.6869641,77.5378632 16.8924457,65.5152357 13.5080387,61.3214958 C9.64381703,56.5347885 5.77102724,51.7394875 1.90680556,46.9527802 C1.7868519,46.7980931 1.67546635,46.6519997 1.5640808,46.4887188 C-1.16058104,42.6129469 -0.235224189,37.2504597 3.6375656,34.5176538 L9.02691246,30.7106316 C12.7197718,28.0981379 17.7835301,28.8114174 20.6195775,32.3262528 L33.4546198,48.2246522 L66.1676981,24.5575214 C66.1676981,24.5575214 66.2019706,24.5317402 66.227675,24.5145527 C67.1787362,23.8356481 68.2069105,23.3458055 69.2693572,23.0364313" id="路径"></path>
                    <path d="M69.2693572,23.0364313 L77.3576616,19.6505019 C78.4029721,19.0833157 79.4225782,18.7395666 80.4336163,18.5934732 L80.4678888,18.5934732 C83.0897332,17.3989448 87.0053636,15.834886 91.3151274,14.7950448 L99.2577737,1.48335792 C100.123154,0.0396113799 101.982436,-0.433043737 103.42188,0.434922933 L103.653219,0.572422603 C105.092663,1.43179554 105.563909,3.29663483 104.698529,4.74038137 L99.3434549,13.7122349 C100.5944,13.6864537 101.836778,13.7552035 103.036314,13.9356718 C103.310494,13.6778599 103.644651,13.454423 104.021648,13.3083296 C104.030216,13.3083296 104.038784,13.3083296 104.047352,13.2997359 L121.449202,6.60522065 C123.0086,6.00365959 124.756496,6.77709524 125.364832,8.33256026 L125.459082,8.56459095 C125.656148,9.06302726 125.707557,9.57865102 125.630444,10.0770873 C125.493354,11.134116 124.799337,12.08802 123.73689,12.5091128 C123.728322,12.5177065 123.719754,12.5177065 123.719754,12.5177065 L110.978961,17.424726" id="路径"></path>
                </g>
                <path d="M154.453245,72.3597662 L147.393115,77.5675662 L126.683971,92.3315933 C124.773281,93.6894026 123.368109,95.3050237 122.365639,97.1011132 C121.894393,97.9518924 121.517395,98.8370465 121.217511,99.7651693 C119.99227,103.555004 120.163633,107.894837 121.097557,112.251858 C124.524805,128.304945 128.500412,139.047106 136.614421,153.819727 L139.570422,186.209493 C153.262276,186.948554 183.704803,188.572769 196.248529,183.339188 L199.641504,146.970525 C199.641504,146.970525 223.563693,102.420632 217.891598,89.6933184 C212.219503,76.9660052 164.640738,73.6144507 164.640738,73.6144507 L154.461813,72.3769537 L154.453245,72.3597662 Z" id="_路径-113" stroke="#2C333B" fill="#FFFFFF" fill-rule="nonzero"></path>
                <path d="M201.355128,124.291673 L216.914832,142.029131 C219.15968,139.717417 221.404527,137.39711 223.649374,135.085397 C223.649374,134.672898 225.294453,133.392432 225.611473,133.065871 C226.296923,132.352591 226.99094,131.639312 227.67639,130.934626 C229.99835,128.536975 232.337447,126.147919 234.676543,123.758862 C235.841807,122.564333 237.01564,121.378399 238.189472,120.18387 C239.003443,119.350279 240.811316,118.095594 240.768476,116.763566 C240.734203,115.68935 239.603212,114.864352 238.917762,114.176853 C235.884648,111.160454 232.988624,107.903431 230.203985,104.612033 C227.830616,101.793289 225.53436,98.9057963 223.340922,95.9495534 C221.335982,93.2511224 220.149593,90.5638632 217.270705,88.6990239" id="_路径-114" stroke="#2C333B" fill="#FFFFFF" fill-rule="nonzero"></path>
                <path d="M121.894393,98.4847036 C115.699643,105.978436 109.530597,113.489355 103.241597,120.888556 C102.350513,121.936991 101.450861,122.99402 100.559776,124.042455 L98.6423787,126.297294 C97.5690647,127.559499 97.7221916,129.452812 98.9843973,130.526126 C99.0974127,130.622229 99.217401,130.709816 99.3433744,130.788166 L118.287214,142.570535 L118.287214,142.570535 C121.200375,143.369752 124.447692,142.16663 126.349814,139.579918" id="_路径-115" stroke="#2C333B" fill="#FFFFFF" fill-rule="nonzero"></path>
                <path d="M144.63418,11.3614749 L134.326733,21.8028561 C132.184703,23.9770696 131.782002,27.1911244 133.324263,29.777837 C137.291302,36.0082908 139.67324,43.0121803 140.281576,50.2395067 C140.512915,62.1504157 174.159919,58.2832374 174.159919,58.2832374 L166.928426,29.7520558 L162.498709,15.4263089 L144.63418,11.3528811 L144.63418,11.3614749 Z" id="_路径-116" fill="#2C333B" fill-rule="nonzero"></path>
                <path d="M171.323871,28.3856528 C174.451235,28.3856528 176.987398,30.9293967 176.987398,34.0575142 C176.987398,35.939541 176.079177,37.6067245 174.674006,38.6293783" id="路径" stroke="#2C333B" fill="#FFFFFF" fill-rule="nonzero"></path>
                <path d="M144.625612,35.6731354 L144.625612,35.621573 C144.625612,35.621573 144.617044,35.6129792 144.617044,35.6129792 C143.86305,32.1668938 143.297554,30.0614301 143.297554,30.0614301 L141.592498,19.8778607 L166.105887,19.9895792 C168.170803,22.2153551 169.884427,25.0942545 171.323871,28.3856528 C172.677634,31.5051766 173.782921,34.985637 174.674006,38.6293783 C178.066981,52.4738763 178.418274,68.5269629 178.401137,75.1785094 C178.401137,77.2839731 177.450076,79.2949058 175.787861,80.7042774 C169.147569,87.4073864 158.308898,88.4816026 150.340548,83.2308339 C148.361312,82.0019306 147.333138,79.7933421 147.718703,77.5933474 C149.355214,68.2175886 148.241359,56.3066797 146.724801,46.7504526" id="路径" stroke="#2C333B" fill="#FFFFFF" fill-rule="nonzero"></path>
                <ellipse id="_椭圆形-40" stroke="#2C333B" fill="#FFFFFF" fill-rule="nonzero" transform="translate(166.034324, 44.192130) rotate(-84.000000) translate(-166.034324, -44.192130) " cx="166.034324" cy="44.1921303" rx="3.1194222" ry="1.20814463"></ellipse>
                <path d="M146.724801,46.7504526 C146.433485,46.8020149 146.142169,46.8277961 145.833717,46.8277961 C142.706354,46.8277961 140.17019,44.2926459 140.17019,41.1559347 C140.17019,38.4403162 142.072313,36.1715717 144.617044,35.621573 L144.617044,35.621573" id="路径" stroke="#2C333B" fill="#FFFFFF" fill-rule="nonzero"></path>
                <path d="M142.063745,3.21461938 C139.056335,4.14274216 136.751511,6.42867418 135.954676,9.29038607 C134.369574,14.1458432 135.372044,19.4052056 138.645065,23.4528521 C144.00014,29.7348683 160.656563,26.0911271 168.530664,23.9083198 C171.212486,23.1692591 173.208857,21.0637954 173.680104,18.4856765 C174.982458,11.3786623 180.731666,-0.97052684 169.241818,0.0607206885 C160.116771,0.524782077 151.034565,1.57321706 142.055177,3.20602565 L142.055177,3.20602565 L142.063745,3.21461938 Z" id="_路径-117" fill="#2C333B" fill-rule="nonzero"></path>
                <polygon id="_路径-118" fill="#2C333B" fill-rule="nonzero" points="135.928972 28.2481531 145.45672 37.6067245 148.866831 37.2114129 145.842285 28.3598716 165.283347 20.8919208 172.737611 30.697366 169.284659 16.9044303 159.140006 14.9106851 139.690376 21.5278567"></polygon>
                <path d="M165.386165,38.320004 C165.548959,38.320004 165.703185,38.225473 165.780298,38.0707859 L167.605307,34.2809512 C167.81951,33.8340773 167.845215,33.3098598 167.665284,32.8457984 C167.493922,32.381737 167.134061,32.0122066 166.679951,31.8317383 L163.406929,30.5426789 C163.184158,30.4567416 162.935683,30.5770538 162.850001,30.8090845 C162.76432,31.0411152 162.875706,31.2989271 163.098477,31.3848644 L166.371498,32.6739238 C166.594269,32.7598611 166.765632,32.9403294 166.851313,33.1723601 C166.936994,33.4043908 166.928426,33.6536089 166.817041,33.8770459 L164.992031,37.6668806 C164.889214,37.8903175 164.974895,38.1567232 165.189098,38.2684416 C165.249075,38.3028166 165.31762,38.3114103 165.386165,38.3114103 L165.386165,38.3114103 L165.386165,38.320004 Z" id="_路径-119" fill="#2C333B" fill-rule="nonzero"></path>
                <ellipse id="_椭圆形-41" fill="#2C333B" fill-rule="nonzero" transform="translate(156.992582, 34.037349) rotate(-23.340000) translate(-156.992582, -34.037349) " cx="156.992582" cy="34.0373493" rx="1" ry="2.164607"></ellipse>
                <ellipse id="_椭圆形-42" fill="#2C333B" fill-rule="nonzero" transform="translate(167.402624, 31.074754) rotate(-23.340000) translate(-167.402624, -31.074754) " cx="167.402624" cy="31.074754" rx="1" ry="2.164607"></ellipse>
                <path d="M153.330821,31.109865 C153.485047,31.109865 153.630705,31.0325215 153.69925,30.9036155 C154.024839,30.3106482 155.138694,28.7208083 156.346799,28.5489337 C156.937999,28.4973713 157.512063,28.7208083 157.880492,29.1504947 C157.98331,29.2450258 158.137536,29.2879944 158.274626,29.2536195 C158.411716,29.2192446 158.531669,29.1161198 158.565942,28.9872139 C158.600214,28.8583079 158.565942,28.7122145 158.463124,28.6176835 C157.906197,28.0161225 157.066521,27.7067482 156.218277,27.7926855 C154.350427,28.0590911 153.022369,30.4481479 152.962392,30.5512726 C152.910983,30.6372099 152.902415,30.7489284 152.936688,30.8434594 C152.97096,30.9379904 153.048073,31.015334 153.142323,31.0668964 C153.202299,31.0926776 153.262276,31.109865 153.330821,31.109865 L153.330821,31.109865 Z" id="_路径-120" fill="#2C333B" fill-rule="nonzero"></path>
                <path d="M163.235567,28.9872139 C163.389793,28.9872139 163.535451,28.9098703 163.603996,28.7809644 C163.929584,28.187997 165.04344,26.5981571 166.251545,26.4262825 C166.842745,26.3747201 167.416809,26.6067508 167.785238,27.0278436 C167.948032,27.1825307 168.205076,27.1825307 168.36787,27.0278436 C168.530664,26.8817502 168.530664,26.6411257 168.36787,26.4864386 C167.81951,25.8762838 166.971267,25.5669096 166.123023,25.6614406 C164.255173,25.9278462 162.927115,28.316903 162.867138,28.4200277 C162.807161,28.5403399 162.807161,28.6778396 162.884274,28.7895581 C162.961387,28.9012766 163.089909,28.9700264 163.235567,28.9700264 L163.235567,28.9700264 L163.235567,28.9872139 Z" id="_路径-121" fill="#2C333B" fill-rule="nonzero"></path>
                <path d="M147.744408,77.2495982 L139.861738,82.9472408 L168.590641,100.031575 C168.590641,100.031575 167.134061,83.1534903 171.323871,84.6917679 C171.323871,84.6917679 145.533833,79.2605309 147.744408,77.2495982 L147.744408,77.2495982 Z" id="_路径-122" stroke="#2C333B" fill="#FFFFFF" fill-rule="nonzero"></path>
                <path d="M178.401137,73.7175754 C177.689984,78.3152207 174.554052,82.1050553 170.518468,84.5456745 C176.070609,85.9722336 181.30573,89.7019121 183.070762,95.0643993 L185.478404,76.0206949 L178.401137,73.7175754 L178.401137,73.7175754 Z" id="_路径-123" stroke="#2C333B" fill="#FFFFFF" fill-rule="nonzero"></path>
            </g>
            <g id="前面卡片" transform="translate(119.176559, 120.196402)">
                <g id="_矩形备份-125-2" fill-rule="nonzero">
                    <rect id="矩形" fill="#F1F4F8" x="0.414634146" y="0.415643738" width="108.634146" height="78.9723102" rx="9.5"></rect>
                    <path d="M101.170732,0.831287476 C105.283902,0.831287476 108.634146,4.18968888 108.634146,8.31287476 L108.634146,71.4907229 C108.634146,75.6139088 105.283902,78.9723102 101.170732,78.9723102 L8.29268293,78.9723102 C4.1795122,78.9723102 0.829268293,75.6139088 0.829268293,71.4907229 L0.829268293,8.31287476 C0.829268293,4.18968888 4.1795122,0.831287476 8.29268293,0.831287476 L101.170732,0.831287476 M101.170732,0 L8.29268293,0 C3.71512195,0 0,3.72416789 0,8.31287476 L0,71.4907229 C0,76.0794298 3.71512195,79.8035977 8.29268293,79.8035977 L101.170732,79.8035977 C105.748293,79.8035977 109.463415,76.0794298 109.463415,71.4907229 L109.463415,8.31287476 C109.463415,3.72416789 105.748293,0 101.170732,0 L101.170732,0 Z" id="形状" fill="#333333"></path>
                </g>
                <path d="M105.458049,9.07765924 L4.28731707,9.07765924 C4.28731707,9.07765924 4.28731707,72.2555074 4.28731707,72.2555074 C4.28731707,74.5498609 6.14487805,76.4119448 8.43365854,76.4119448 L101.311707,76.4119448 C103.600488,76.4119448 105.458049,74.5498609 105.458049,72.2555074 L105.458049,9.07765924 Z" id="路径" fill="#FFFFFF"></path>
                <path d="M11.6097561,31.2730348 L45.6097561,31.2730348 C47.442439,31.2730348 48.9268293,32.7610394 48.9268293,34.5981848 L48.9268293,34.5981848 C48.9268293,36.4353301 47.442439,37.9233347 45.6097561,37.9233347 L11.6097561,37.9233347 C9.77707317,37.9233347 8.29268293,36.4353301 8.29268293,34.5981848 L8.29268293,34.5981848 C8.29268293,32.7610394 9.77707317,31.2730348 11.6097561,31.2730348 Z" id="_矩形备份-127-2" fill="#F1F4F8"></path>
                <path d="M11.6097561,44.5736345 L73.804878,44.5736345 C75.637561,44.5736345 77.1219512,46.061639 77.1219512,47.8987844 L77.1219512,47.8987844 C77.1219512,49.7359297 75.637561,51.2239343 73.804878,51.2239343 L11.6097561,51.2239343 C9.77707317,51.2239343 8.29268293,49.7359297 8.29268293,47.8987844 L8.29268293,47.8987844 C8.29268293,46.061639 9.77707317,44.5736345 11.6097561,44.5736345 Z" id="_矩形备份-139-2" fill="#F1F4F8"></path>
                <g id="_编组-327备份-2" transform="translate(71.317073, 23.276049)">
                    <g id="_编组-325-4">
                        <path d="M19.0731707,0 L19.0731707,0 C8.54146341,0 0,8.562261 0,19.1196119 L0,19.1196119 C0,29.6769629 8.54146341,38.2392239 19.0731707,38.2392239 L19.0731707,38.2392239 C29.604878,38.2392239 38.1463415,29.6769629 38.1463415,19.1196119 L38.1463415,19.1196119 C38.1463415,8.562261 29.604878,0 19.0731707,0 Z" id="_矩形备份-99-4" stroke="#3399FF" stroke-width="4"></path>
                        <g id="_编组-206备份-2" transform="translate(13.749268, 8.757878)" fill="#3399FF" fill-rule="nonzero">
                            <g id="编组">
                                <path d="M3.51609756,15.2330784 C3.54097561,13.5538777 4.08,11.9245542 5.0502439,10.5695556 C5.66390244,9.82970977 6.3604878,9.17299267 7.13170732,8.61603006 C7.88634146,8.10063182 8.54146341,7.44391472 9.05560976,6.67913024 C9.5697561,5.95591013 9.59463415,4.97499091 9.11365854,4.21851931 C8.25121951,3.12121984 6.88292683,2.57257011 5.52292683,2.78870485 C4.11317073,2.9383366 2.7697561,3.45373483 1.62536585,4.28502231 L0,2.06548475 C1.50926829,0.959872403 3.27560976,0.278216673 5.13317073,0.0703948037 C7.51317073,-0.287058811 9.9097561,0.735424785 11.3526829,2.71388898 C12.422439,4.35152531 12.4390244,6.45468262 11.402439,8.08400607 C10.722439,9.15636692 9.84341463,10.0707831 8.80682927,10.7940032 C8.2097561,11.2262727 7.66243902,11.7250452 7.18146341,12.2903207 C6.5595122,13.2213627 6.2195122,14.3186621 6.21121951,15.4492131 L3.50780488,15.2330784 L3.51609756,15.2330784 Z" id="_路径-124"></path>
                                <ellipse id="_椭圆形-43" cx="4.49463415" cy="19.505896" rx="2.48780488" ry="2.49386243"></ellipse>
                            </g>
                        </g>
                    </g>
                    <path d="M26.9843902,34.7395036 L26.9843902,34.7395036 C26.0390244,35.379595 25.7819512,36.6764034 26.4287805,37.6240712 L38.4863415,55.5383163 C39.124878,56.485984 40.4185366,56.7436831 41.3639024,56.0952789 L41.3639024,56.0952789 C42.3092683,55.4551875 42.5663415,54.1583791 41.9195122,53.2107113 L29.8619512,35.2964662 C29.2234146,34.3487985 27.9297561,34.0910994 26.9843902,34.7395036 Z" id="_矩形备份-114-2" fill="#3399FF"></path>
                </g>
                <ellipse id="_椭圆形-44" fill="#F1F4F8" fill-rule="nonzero" cx="12.4390244" cy="21.2975851" rx="4.14634146" ry="4.15643738"></ellipse>
                <ellipse id="_椭圆形备份-71-2" fill="#F1F4F8" fill-rule="nonzero" cx="30.6829268" cy="21.2975851" rx="4.14634146" ry="4.15643738"></ellipse>
                <ellipse id="_椭圆形备份-72-2" fill="#F1F4F8" fill-rule="nonzero" cx="48.9268293" cy="21.2975851" rx="4.14634146" ry="4.15643738"></ellipse>
            </g>
        </g>
    </g>
</svg>